<svg xmlns="http://www.w3.org/2000/svg" viewBox="0 0 52 52"><path d="M26 0C11.663 0 0 11.663 0 26s11.663 26 26 26 26-11.663 26-26S40.337 0 26 0zm0 50C12.767 50 2 39.233 2 26S12.767 2 26 2s24 10.767 24 24-10.767 24-24 24z"/><path d="M26 37a1 1 0 0 0-1 1v2a1 1 0 1 0 2 0v-2a1 1 0 0 0-1-1zM26.113 9.001L25.998 9a7.938 7.938 0 0 0-5.615 2.304A7.944 7.944 0 0 0 18 17a1 1 0 1 0 2 0c0-1.618.635-3.136 1.787-4.272 1.153-1.137 2.688-1.765 4.299-1.727 3.161.044 5.869 2.752 5.913 5.913a5.973 5.973 0 0 1-2.751 5.132C26.588 23.762 25 26.794 25 30.158V33a1 1 0 1 0 2 0v-2.842c0-2.642 1.276-5.105 3.332-6.432a7.96 7.96 0 0 0 3.667-6.84c-.06-4.287-3.598-7.825-7.886-7.885z"/></svg>