<svg xmlns="http://www.w3.org/2000/svg" width="441.951" height="441.951" viewBox="0 0 441.951 441.951"><path d="M316.456 164.242H3.464A3.472 3.472 0 0 0 0 167.722v215.596a3.47 3.47 0 0 0 3.464 3.481h312.992a3.482 3.482 0 0 0 3.482-3.481V167.722a3.483 3.483 0 0 0-3.482-3.48zm-52.93 27.814l-103.569 75.957-103.554-75.957h207.123zm28.58 166.929H27.814V205.599l130.088 95.405a3.501 3.501 0 0 0 4.119 0l130.085-95.405v153.386zM441.951 58.629v215.599a3.479 3.479 0 0 1-3.473 3.481H338.303v-27.814h75.817V96.515l-73.213 53.691h-47.05l91.678-67.24h-207.12l91.685 67.24h-47.053l-73.212-53.691v53.691h-27.823V58.629a3.474 3.474 0 0 1 3.464-3.478h312.998a3.481 3.481 0 0 1 3.477 3.478z"/></svg>