<?xml version="1.0" encoding="iso-8859-1"?>
<!-- Generator: Adobe Illustrator 16.0.0, SVG Export Plug-In . SVG Version: 6.00 Build 0)  -->
<!DOCTYPE svg PUBLIC "-//W3C//DTD SVG 1.1//EN" "http://www.w3.org/Graphics/SVG/1.1/DTD/svg11.dtd">
<svg version="1.1" id="Capa_1" xmlns="http://www.w3.org/2000/svg" xmlns:xlink="http://www.w3.org/1999/xlink" x="0px" y="0px"
	 width="441.951px" height="441.951px" viewBox="0 0 441.951 441.951" style="enable-background:new 0 0 441.951 441.951;"
	 xml:space="preserve">
<g>
	<path d="M316.456,164.242H3.464c-1.912,0-3.464,1.557-3.464,3.48v215.596c0,1.927,1.552,3.481,3.464,3.481h312.992
		c1.918,0,3.482-1.555,3.482-3.481V167.722C319.938,165.798,318.374,164.242,316.456,164.242z M263.526,192.056l-103.569,75.957
		L56.403,192.056H263.526z M292.106,358.985H27.814V205.599l130.088,95.405c1.231,0.893,2.89,0.893,4.119,0l130.085-95.405V358.985z
		 M441.951,58.629v215.599c0,1.927-1.562,3.481-3.473,3.481H338.303v-27.814h75.817V96.515l-73.213,53.691h-47.05l91.678-67.24
		H178.415l91.685,67.24h-47.053l-73.212-53.691v53.691h-27.823V58.629c0-1.921,1.555-3.478,3.464-3.478h312.998
		C440.389,55.152,441.951,56.708,441.951,58.629z"/>
</g>
<g>
</g>
<g>
</g>
<g>
</g>
<g>
</g>
<g>
</g>
<g>
</g>
<g>
</g>
<g>
</g>
<g>
</g>
<g>
</g>
<g>
</g>
<g>
</g>
<g>
</g>
<g>
</g>
<g>
</g>
</svg>
