<svg xmlns="http://www.w3.org/2000/svg" width="400" height="400" viewBox="0 0 400 400"><path d="M199.991 0C89.715 0 .002 89.72.002 200c0 110.279 89.713 200 199.989 200 110.281 0 200.007-89.721 200.007-200 0-110.28-89.726-200-200.007-200zm0 373.77c-95.81 0-173.759-77.953-173.759-173.77 0-95.817 77.949-173.77 173.759-173.77 95.821 0 173.775 77.953 173.775 173.77.002 95.816-77.954 173.77-173.775 173.77z"/><path d="M279.476 186.884l-158.958.003c-7.242 0-13.115 5.873-13.115 13.115 0 7.243 5.873 13.116 13.115 13.116l158.958-.005c7.243 0 13.115-5.872 13.115-13.114s-5.872-13.115-13.115-13.115z"/></svg>