<svg xmlns="http://www.w3.org/2000/svg" viewBox="0 0 463.001 463.001"><path d="M303.501 0c-87.948 0-159.5 71.551-159.5 159.5 0 36.188 12.122 69.593 32.507 96.386l-32.311 32.311a7.63 7.63 0 0 0-.569.643 39.816 39.816 0 0 0-8.127-.84c-10.55 0-20.47 4.109-27.933 11.572l-95.999 95.999C4.108 403.03 0 412.949 0 423.5s4.108 20.471 11.568 27.928C19.031 458.891 28.951 463 39.501 463s20.47-4.109 27.933-11.572l95.999-95.999c7.461-7.458 11.569-17.377 11.569-27.929 0-2.765-.289-5.484-.84-8.129.222-.176.437-.363.642-.568l32.31-32.31C233.908 306.879 267.313 319 303.501 319c87.948 0 159.5-71.551 159.5-159.5S391.449 0 303.501 0zM56.826 440.822C52.197 445.451 46.045 448 39.501 448s-12.696-2.549-17.326-7.179C17.548 436.196 15 430.045 15 423.5s2.548-12.696 7.176-17.322l86.698-86.698 34.647 34.647-86.695 86.695zm97.249-97.354l-34.528-34.528a24.425 24.425 0 0 1 15.954-5.926c6.274 0 12.55 2.389 17.326 7.166 4.627 4.625 7.175 10.776 7.175 17.321a24.306 24.306 0 0 1-5.927 15.967zm13.655-38.803a39.845 39.845 0 0 0-4.296-5.092 40.06 40.06 0 0 0-5.098-4.299l27.841-27.841c3 3.259 6.134 6.393 9.393 9.393l-27.84 27.839zM303.501 304c-79.678 0-144.5-64.822-144.5-144.5S223.823 15 303.501 15s144.5 64.822 144.5 144.5S383.179 304 303.501 304z"/><path d="M303.501 32c-70.304 0-127.5 57.196-127.5 127.5S233.197 287 303.501 287s127.5-57.196 127.5-127.5S373.805 32 303.501 32zm0 240c-62.032 0-112.5-50.467-112.5-112.5S241.469 47 303.501 47s112.5 50.467 112.5 112.5S365.533 272 303.501 272z"/><path d="M355.58 79.438a7.499 7.499 0 0 0-10.378 2.188 7.5 7.5 0 0 0 2.188 10.378C370.314 106.944 384 132.176 384 159.5c0 18.667-6.534 36.86-18.399 51.226a7.5 7.5 0 1 0 11.566 9.552C391.246 203.231 399 181.646 399 159.501c.001-32.414-16.231-62.343-43.42-80.063zM320.856 65.575A96.293 96.293 0 0 0 303.501 64c-4.143 0-7.5 3.358-7.5 7.5s3.357 7.5 7.5 7.5c4.922 0 9.849.447 14.645 1.328a7.504 7.504 0 0 0 8.732-6.021 7.501 7.501 0 0 0-6.022-8.732z"/></svg>