<svg xmlns="http://www.w3.org/2000/svg" viewBox="0 0 33 33"><path d="M7.282 32.706a.5.5 0 0 1-.5-.5v-7.124C2.405 22.806 0 18.821 0 13.828 0 6.112 7.093.294 16.5.294S33 6.112 33 13.828c0 7.715-7.093 13.533-16.5 13.533-.309 0-.612-.017-.916-.033l-.02-.001-8.007 5.296a.498.498 0 0 1-.275.083zM16.5 1.294C7.664 1.294 1 6.683 1 13.828c0 3.323 1.128 7.842 6.503 10.499a.5.5 0 0 1 .278.448v6.501l7.369-4.874a.456.456 0 0 1 .302-.082l.186.01c.286.016.571.031.861.031 8.836 0 15.5-5.388 15.5-12.533S25.336 1.294 16.5 1.294z"/></svg>