<svg xmlns="http://www.w3.org/2000/svg" viewBox="0 0 512 512"><path d="M378.965 156.886H268.721a7.95 7.95 0 0 0 0 15.9h110.244c4.392 0 7.95-3.56 7.95-7.95s-3.558-7.95-7.95-7.95zM378.965 241.689H268.721a7.95 7.95 0 0 0 0 15.9h110.244c4.392 0 7.95-3.56 7.95-7.95s-3.558-7.95-7.95-7.95zM378.965 326.493H268.721a7.95 7.95 0 0 0 0 15.9h110.244c4.392 0 7.95-3.56 7.95-7.95s-3.558-7.95-7.95-7.95zM226.319 139.925h-33.921a7.95 7.95 0 0 0-7.95 7.95v33.921a7.95 7.95 0 0 0 7.95 7.95h33.921a7.95 7.95 0 0 0 7.95-7.95v-33.921a7.95 7.95 0 0 0-7.95-7.95zm-7.95 33.922h-18.021v-18.021h18.021v18.021zM226.319 224.729h-33.921a7.95 7.95 0 0 0-7.95 7.95V266.6a7.95 7.95 0 0 0 7.95 7.95h33.921a7.95 7.95 0 0 0 7.95-7.95v-33.921a7.949 7.949 0 0 0-7.95-7.95zm-7.95 33.921h-18.021v-18.021h18.021v18.021zM226.319 309.532h-33.921a7.95 7.95 0 0 0-7.95 7.95v33.921a7.95 7.95 0 0 0 7.95 7.95h33.921a7.95 7.95 0 0 0 7.95-7.95v-33.921a7.95 7.95 0 0 0-7.95-7.95zm-7.95 33.921h-18.021v-18.021h18.021v18.021z"/><path d="M472.39 363.911l6.282 2.602-6.294-2.607-3.66-1.516 3.652 1.512c-14.48-5.995-29.915-4.392-43.053 4.036V133.035a7.95 7.95 0 0 0-7.95-7.95 7.95 7.95 0 0 0-7.95 7.95v230.54c-11.934-4.706-25.074-4.328-37.111 1.463-18.668 8.982-30.732 28.596-30.732 49.968 0 4.189.751 8.624 2.188 13.25H165.896c-4.384 0-7.95-3.566-7.95-7.95V53.532c0-4.384 3.566-7.95 7.95-7.95h18.551v42.932a7.95 7.95 0 0 0 7.95 7.95h33.921a7.95 7.95 0 0 0 7.95-7.95V45.582h26.501v42.932a7.95 7.95 0 0 0 7.95 7.95h33.921a7.95 7.95 0 0 0 7.95-7.95V45.582h26.501v42.932a7.95 7.95 0 0 0 7.95 7.95h33.921a7.95 7.95 0 0 0 7.95-7.95V45.582h18.551c4.384 0 7.95 3.566 7.95 7.95v34.981a7.95 7.95 0 0 0 7.95 7.95 7.95 7.95 0 0 0 7.95-7.95V53.532c0-13.152-10.7-23.851-23.851-23.851h-18.551V7.95a7.95 7.95 0 0 0-7.95-7.95H345.04a7.95 7.95 0 0 0-7.95 7.95v21.731h-26.501V7.95a7.95 7.95 0 0 0-7.95-7.95h-33.921a7.95 7.95 0 0 0-7.95 7.95v21.731h-26.501V7.95a7.95 7.95 0 0 0-7.95-7.95h-33.921a7.95 7.95 0 0 0-7.95 7.95v21.731h-18.551c-13.151 0-23.851 10.699-23.851 23.851v366.774c0 13.152 10.7 23.851 23.851 23.851h189.142c19.612 32.974 63.983 64.956 65.942 66.358 3.084 1.98 6.168 1.98 9.253 0 .756-.541 18.722-13.45 36.967-31.246 25.506-24.879 38.439-46.501 38.439-64.263.002-22.319-13.359-42.851-33.248-51.095zM352.994 37.631v-21.73h18.021V80.564h-18.021V37.631zm-76.323 0v-21.73h18.021V80.564h-18.021V37.631zm-76.323 0v-21.73h18.021V80.564h-18.021V37.631zm225.289 456.515c-12.247-9.376-45.616-36.366-58.912-61.637l-.001-.003c-3.483-6.621-5.249-12.508-5.249-17.499 0-15.301 8.527-29.29 21.724-35.64 8.968-4.314 19.289-3.975 28.052.684 4.637 2.465 8.838 8.866 14.354 8.985 5.056.109 8.498-5.457 12.518-7.753 8.921-5.096 18.337-6.758 28.17-2.686 14.023 5.809 23.446 20.442 23.446 36.41 0 25.344-42.635 62.877-64.102 79.139z"/><path d="M468.718 362.39c-.013-.005-.017-.007 0 0zM478.672 366.513c.103.043.099.041 0 0zM82.153 0C60.316 0 42.34 16.806 40.455 38.161H30.211C17.06 38.161 6.36 48.86 6.36 62.012v132.505a7.95 7.95 0 0 0 7.95 7.95 7.95 7.95 0 0 0 7.95-7.95V62.012c0-4.384 3.566-7.95 7.95-7.95h10.07V283.561a7.95 7.95 0 0 0 7.95 7.95 7.95 7.95 0 0 0 7.95-7.95v-81.093h51.942v225.789h-51.94V323.843a7.95 7.95 0 0 0-7.95-7.95 7.95 7.95 0 0 0-7.95 7.95v112.364a7.95 7.95 0 0 0 1.743 4.966l32.179 40.224v22.652a7.95 7.95 0 0 0 7.95 7.95 7.95 7.95 0 0 0 7.95-7.95v-22.652l32.179-40.224a7.955 7.955 0 0 0 1.743-4.966V41.872C124.025 18.784 105.241 0 82.153 0zm0 465.882l-17.379-21.724h34.76l-17.381 21.724zm25.971-279.315H56.182V41.872c0-14.32 11.65-25.971 25.971-25.971s25.971 11.651 25.971 25.971v144.695z"/></svg>