<svg xmlns="http://www.w3.org/2000/svg" viewBox="0 0 320 320"><path d="M169.392 194.395c-5.858 5.858-5.858 15.355 0 21.213a14.954 14.954 0 0 0 10.606 4.394c3.839 0 7.678-1.464 10.606-4.394l44.998-44.997c.35-.351.683-.719.997-1.103.137-.167.256-.344.385-.515.165-.22.335-.435.488-.664.14-.209.261-.426.389-.64.123-.206.252-.407.366-.619.118-.22.217-.446.323-.67.104-.219.213-.435.306-.659.09-.219.163-.442.243-.664.087-.24.178-.477.253-.722.067-.222.116-.447.172-.672.063-.249.133-.497.184-.751.051-.259.082-.521.119-.782.032-.223.075-.443.097-.669.048-.484.073-.971.074-1.457l.001-.022-.001-.022a15.11 15.11 0 0 0-.074-1.458c-.022-.223-.064-.44-.095-.661-.038-.264-.069-.528-.121-.79-.05-.252-.119-.496-.182-.743-.057-.227-.107-.456-.175-.681-.073-.241-.164-.474-.249-.711-.081-.226-.155-.453-.247-.675-.091-.22-.199-.431-.3-.645-.108-.229-.21-.46-.33-.685-.11-.205-.235-.4-.354-.599-.132-.221-.256-.444-.4-.659-.146-.219-.309-.424-.466-.635-.136-.181-.262-.368-.407-.544a15.162 15.162 0 0 0-.948-1.048c-.016-.016-.029-.034-.045-.05l-45-45.001c-5.858-5.858-15.355-5.857-21.213 0-5.858 5.858-5.858 15.355 0 21.213l19.394 19.395H15c-8.284 0-15 6.716-15 15 0 8.284 6.716 15 15 15h173.785l-19.393 19.392z"/><path d="M305 25H115c-8.284 0-15 6.716-15 15v60c0 8.284 6.716 15 15 15s15-6.716 15-15V55h160v210H130v-45.001c0-8.284-6.716-15-15-15s-15 6.716-15 15V280c0 8.284 6.716 15 15 15h190c8.284 0 15-6.716 15-15V40c0-8.285-6.716-15-15-15z"/></svg>