<svg xmlns="http://www.w3.org/2000/svg" viewBox="0 0 489.7 489.7"><circle cx="244.9" cy="47" r="37.8" fill="#a7a9ac"/><circle cx="417.3" cy="343.3" r="37.8" fill="#a7a9ac"/><circle cx="72.5" cy="343.3" r="37.8" fill="#a7a9ac"/><path d="M464.2 146.5c0-25.9-21-46.9-46.9-46.9-14.1 0-26.7 6.2-35.3 16.1L289.3 62c1.6-4.7 2.5-9.8 2.5-15.1 0-25.9-21-46.9-46.9-46.9S198 21 198 46.9c0 5.3.9 10.3 2.5 15l-92.7 53.7c-8.6-9.8-21.2-16.1-35.3-16.1-25.9 0-46.9 21-46.9 46.9 0 22.4 15.8 41.2 36.8 45.8l.1 105.2c-21.1 4.6-37 23.4-37 45.8 0 25.9 21 46.9 46.9 46.9 13.8 0 26.2-6 34.8-15.5l93 53.7c-1.5 4.6-2.3 9.4-2.3 14.5 0 25.9 21 46.9 46.9 46.9s46.9-21 46.9-46.9c0-5.1-.8-9.9-2.3-14.5l93-53.7c8.6 9.5 21 15.5 34.8 15.5 25.9 0 46.9-21 46.9-46.9 0-22.7-16.3-41.8-37.8-46V192.4c21.6-4.1 37.9-23.1 37.9-45.9zm-46.9-28.8c15.9 0 28.8 12.9 28.8 28.8s-12.9 28.8-28.8 28.8-28.8-12.9-28.8-28.8 13-28.8 28.8-28.8zM244.9 18.2c15.9 0 28.8 12.9 28.8 28.8 0 4.9-1.2 9.5-3.4 13.6-.2.2-.3.4-.5.7l-.3.6c-5 8.3-14.2 13.9-24.6 13.9-15.9 0-28.8-12.9-28.8-28.8s12.9-28.8 28.8-28.8zM43.7 146.5c0-15.9 12.9-28.8 28.8-28.8s28.8 12.9 28.8 28.8-12.9 28.8-28.8 28.8-28.8-12.9-28.8-28.8zm28.8 225.6c-15.9 0-28.8-12.9-28.8-28.8s12.9-28.8 28.8-28.8 28.8 12.9 28.8 28.8c-.1 15.9-13 28.8-28.8 28.8zm172.4 99.5c-15.9 0-28.8-12.9-28.8-28.8S229 414 244.9 414s28.8 12.9 28.8 28.8-12.9 28.8-28.8 28.8zm35.7-59.1c-8.6-10.1-21.4-16.6-35.7-16.6s-27.1 6.4-35.7 16.6l-92.6-53.4c1.8-4.9 2.8-10.3 2.8-15.8 0-23.1-16.7-42.3-38.7-46.2l-.1-104.5c22-3.8 38.8-23.1 38.8-46.2 0-5.3-.9-10.4-2.5-15.1l92.7-53.7c8.6 9.9 21.3 16.1 35.4 16.1 14.1 0 26.7-6.2 35.3-16.1l92.7 53.7c-1.6 4.7-2.5 9.8-2.5 15.1 0 22.7 16.3 41.8 37.8 46v104.8c-21.5 4.2-37.8 23.2-37.8 46 0 5.6 1 10.9 2.8 15.8l-92.7 53.5zm165.5-69.2c0 15.9-12.9 28.8-28.8 28.8s-28.8-12.9-28.8-28.8 12.9-28.8 28.8-28.8 28.8 12.9 28.8 28.8z"/><path d="M288.6 281.1v-32.7c5.5-5.3 8.6-12.6 8.6-20.4v-42.9c0-26.3-21.4-47.7-47.7-47.7h-9.2c-26.3 0-47.7 21.4-47.7 47.7V228c0 7.8 3.2 15.1 8.6 20.4v32.7c-10.4 5.4-35.4 19.1-58.8 38.3-3.9 3.2-4.4 8.9-1.2 12.8s8.9 4.4 12.8 1.2c25.9-21.3 53.9-35.4 59.3-38 3.8-1.9 6.1-5.6 6.1-9.9v-41.4c0-3-1.5-5.9-4-7.5-2.9-1.9-4.6-5.1-4.6-8.6v-42.9c0-16.3 13.3-29.6 29.6-29.6h9.2c16.3 0 29.6 13.3 29.6 29.6V228c0 3.4-1.7 6.6-4.6 8.6-2.5 1.7-4 4.5-4 7.5v41.4c0 4.2 2.4 8 6.2 9.9 5.4 2.6 33.4 16.8 59.3 38 1.7 1.4 3.7 2.1 5.7 2.1 2.6 0 5.2-1.1 7-3.3 3.2-3.9 2.6-9.6-1.2-12.8-23.6-19.2-48.6-33-59-38.3z"/></svg>