<svg xmlns="http://www.w3.org/2000/svg" viewBox="0 0 14.171 14.171"><path d="M13.268 0H.905C.405 0 0 .405 0 .904v12.363c0 .499.405.904.905.904h12.362a.904.904 0 0 0 .904-.904V.904A.902.902 0 0 0 13.268 0zm-1.513 8.635c.259.264.821.707.719 1.158-.094.414-.712.263-1.312.287-.685.029-1.091.044-1.503-.287-.194-.157-.308-.343-.494-.551-.169-.188-.382-.525-.672-.512-.521.026-.358.752-.543 1.247-2.896.456-4.059-1.333-5.085-3.069-.497-.841-1.215-2.647-1.215-2.647l2.048-.007s.657 1.195.831 1.503c.148.262.311.47.479.704.141.194.364.574.608.543.397-.051.469-1.591.223-2.107-.098-.209-.333-.282-.576-.353.082-.518 2.297-.626 2.655-.224.52.584-.36 2.21.352 2.684 1-.524 1.854-2.718 1.854-2.718l2.398.015s-.375 1.186-.768 1.712c-.229.308-.989.994-.959 1.503.024.403.642.795.96 1.119z" fill="#030104"/></svg>