<?xml version="1.0" encoding="UTF-8" standalone="no"?>
<svg
   xmlns:dc="http://purl.org/dc/elements/1.1/"
   xmlns:cc="http://creativecommons.org/ns#"
   xmlns:rdf="http://www.w3.org/1999/02/22-rdf-syntax-ns#"
   xmlns:svg="http://www.w3.org/2000/svg"
   xmlns="http://www.w3.org/2000/svg"
   xmlns:sodipodi="http://sodipodi.sourceforge.net/DTD/sodipodi-0.dtd"
   xmlns:inkscape="http://www.inkscape.org/namespaces/inkscape"
   version="1.1"
   id="svg3352"
   viewBox="0 0 213.43623 62.598122"
   height="62.598122mm"
   width="213.43623mm"
   inkscape:version="0.91 r13725"
   sodipodi:docname="coffee_couple_second.svg">
  <sodipodi:namedview
     pagecolor="#ffffff"
     bordercolor="#666666"
     borderopacity="1"
     objecttolerance="10"
     gridtolerance="10"
     guidetolerance="10"
     inkscape:pageopacity="0"
     inkscape:pageshadow="2"
     inkscape:window-width="840"
     inkscape:window-height="998"
     id="namedview3539"
     showgrid="false"
     inkscape:zoom="0.62716049"
     inkscape:cx="212.15662"
     inkscape:cy="-103.95859"
     inkscape:window-x="840"
     inkscape:window-y="24"
     inkscape:window-maximized="0"
     inkscape:current-layer="svg3352"
     fit-margin-top="0"
     fit-margin-left="0"
     fit-margin-right="0"
     fit-margin-bottom="0" />
  <defs
     id="defs3354" />
  <metadata
     id="metadata3358">
    <rdf:RDF>
      <cc:Work
         rdf:about="">
        <dc:format>image/svg+xml</dc:format>
        <dc:type
           rdf:resource="http://purl.org/dc/dcmitype/StillImage" />
        <dc:title></dc:title>
      </cc:Work>
    </rdf:RDF>
  </metadata>
  <g
     id="layer1"
     transform="translate(-42.60726,-56.826911)">
    <g
       transform="matrix(0.28222222,0,0,0.28222222,102.29433,56.826928)"
       id="g3432">
      <g
         id="g3362">
        <path
           style="fill:#1d1d1b"
           d="m 201.946,105.82 c -7.952,-10.182 -18.279,-10.342 -29.758,-10.092 -0.144,-9.964 -2.054,-18.383 -8.029,-18.72 -0.404,-0.023 -0.744,0.107 -1.034,0.304 -0.096,-0.717 -0.611,-1.37 -1.613,-1.434 -44.938,-2.862 -93.74,-1.365 -138.57,3.039 -1.458,0.143 -1.826,1.751 -1.05,2.557 -0.558,0.218 -1.043,0.656 -1.28,1.403 -6.595,20.754 1.635,48.375 9.834,67.578 6.937,16.244 17.214,29.855 31.694,39.131 -16.274,-0.602 -32.547,-1.061 -48.615,0.257 -0.658,0.054 -0.925,1.121 -0.168,1.246 56.333,9.288 118.51,4.04 174.984,-2.673 -2.182,12.828 -37.987,21.167 -46.902,22.903 -13.759,2.679 -27.936,3.387 -41.921,3.497 -30.657,0.241 -61.326,-3.785 -86.074,-23.364 -1.405,-1.112 -3.414,0.763 -2.019,2.019 29.051,26.152 70.57,27.649 107.715,25.068 12.124,-0.842 81.685,-10.801 72.778,-32.738 -0.415,-1.023 -1.741,-1.428 -2.643,-1.088 -18.267,1.405 -36.464,3.135 -54.709,4.34 11.384,-5.473 19.489,-17.485 25.124,-30.552 17.694,12.373 40.294,-0.907 46.7,-20.001 3.642,-10.853 2.753,-23.464 -4.444,-32.68 z m -33.04,21.877 c 0.405,-2.114 1.211,-6.667 1.926,-12.197 7.617,0.083 16.796,1.426 18.902,10.275 1.226,5.154 -1.707,10.695 -6.158,13.322 -5.362,3.164 -11.99,1.931 -16.97,-1.297 0.908,-3.534 1.702,-6.97 2.3,-10.103 z m -39.456,61.075 c -0.231,0.158 -0.365,0.379 -0.432,0.614 -8.951,0.535 -17.914,0.94 -26.907,1.079 -11.038,0.171 -22.154,-0.212 -33.284,-0.632 -30.6,-21.601 -53.064,-68.412 -43.894,-105.765 0.219,-0.892 -0.075,-1.586 -0.57,-2.069 44.565,2.488 92.823,1.943 137.149,-2.692 0.275,-0.028 0.514,-0.104 0.721,-0.212 0.016,0.623 0.305,1.226 0.94,1.55 3.304,1.687 4.456,7.694 4.477,15.188 -1.105,0.05 -1.435,1.817 -0.252,2.034 0.082,0.015 0.167,0.022 0.249,0.036 -0.342,14.452 -4.398,33.314 -5.938,38.731 -5.508,19.375 -15.183,40.524 -32.259,52.138 z m 73.482,-55.521 c -4.56,19.539 -23.508,30.68 -41.698,21.477 1.869,-4.782 3.422,-9.628 4.704,-14.29 10.461,7.792 27.082,3.878 28.521,-10.775 1.147,-11.682 -12.06,-20.783 -23.072,-18.942 0.414,-3.962 0.735,-8.169 0.798,-12.244 6.577,0.595 13.431,0.536 19.121,3.874 10.466,6.14 14.272,19.557 11.626,30.9 z"
           id="path3364"
           inkscape:connector-curvature="0" />
        <path
           style="fill:#1d1d1b"
           d="M 83.754,34.579 C 85.071,32.838 86.002,30.946 85.901,28.71 85.693,24.135 69.772,9.993 70.278,9.282 71.387,7.724 69.561,6.134 68.05,6.384 67.739,6.436 67.427,6.487 67.116,6.538 66.075,6.71 65.435,7.849 65.389,8.806 c -0.236,4.884 5.088,8.147 8.181,11.263 4.183,4.212 7.999,8.3 3.362,14.059 -1.403,1.743 -3.373,2.75 -4.629,4.705 -5.141,8.004 -0.332,17.107 8.457,19.003 1.882,0.406 2.549,-2.182 0.786,-2.849 -8.739,-3.308 -5.576,-12.225 -1.151,-17.397 0.965,-1.128 2.439,-1.795 3.359,-3.011 z"
           id="path3366"
           inkscape:connector-curvature="0" />
        <path
           style="fill:#1d1d1b"
           d="m 99.61,2.055 c -1.324,-1.492 -3.295,0.15 -3.033,1.765 0.598,3.685 2.236,5.034 5.061,7.495 5.022,4.375 11.079,6.034 6.412,16.194 -1.869,4.069 -4.57,4.574 -7.121,7.597 -5.188,6.146 0.367,14.665 4.661,19.644 1.119,1.298 3.275,-0.388 2.367,-1.826 -3.392,-5.372 -5.262,-10.257 -1.585,-16.201 0.935,-1.512 3.2,-2.847 4.338,-4.407 2.308,-3.162 4.142,-7.286 3.911,-11.302 C 114.117,12.208 104.818,7.923 99.61,2.055 Z"
           id="path3368"
           inkscape:connector-curvature="0" />
        <path
           style="fill:#1d1d1b"
           d="m 141.872,17.906 c -0.939,-8.305 -7.378,-14.74 -14.786,-17.779 -1.894,-0.777 -3.61,2.212 -2.026,3.48 1.652,1.322 6.018,4.535 7.052,5.581 3.619,3.663 5.464,11.304 3.632,16.182 -1.431,3.811 -5.346,5.977 -6.487,10.18 -1.624,5.983 0.51,11.799 5.239,15.592 0.973,0.78 2.83,-0.278 1.916,-1.478 -5.782,-7.581 -2.855,-12.778 1.841,-19.746 2.571,-3.813 4.154,-7.284 3.619,-12.012 z"
           id="path3370"
           inkscape:connector-curvature="0" />
        <path
           style="fill:#1d1d1b"
           d="m 166.077,203.611 c -19.036,0.664 -38.252,3.107 -57.098,5.805 -0.583,0.083 -0.451,1.09 0.138,1.033 18.962,-1.863 38.049,-3.223 56.96,-5.49 0.837,-0.1 0.891,-1.379 0,-1.348 z"
           id="path3372"
           inkscape:connector-curvature="0" />
        <path
           style="fill:#1d1d1b"
           d="m 185.031,193.903 c -22.281,2.794 -44.321,5.922 -66.769,7.119 -0.734,0.039 -0.744,1.174 0,1.151 22.343,-0.727 45.037,-2.168 67.002,-6.536 0.961,-0.192 0.758,-1.859 -0.233,-1.734 z"
           id="path3374"
           inkscape:connector-curvature="0" />
        <path
           style="fill:#1d1d1b"
           d="m 137.967,181.822 c -6.699,0.591 -13.358,1.874 -19.999,2.911 -3.747,0.585 -12.425,0.286 -15.124,3.037 -0.052,0.051 -0.037,0.131 0.02,0.169 0.089,0.058 0.178,0.116 0.269,0.173 0.039,0.027 0.091,0.006 0.116,-0.03 0.043,-0.064 0.087,-0.129 0.13,-0.192 0.044,-0.065 -0.056,-0.143 -0.11,-0.084 1.107,-1.234 9.082,-1.109 10.894,-1.344 2.646,-0.342 5.29,-0.692 7.934,-1.041 5.354,-0.707 10.749,-1.255 16.043,-2.314 0.715,-0.142 0.567,-1.351 -0.173,-1.285 z"
           id="path3376"
           inkscape:connector-curvature="0" />
        <path
           style="fill:#1d1d1b"
           d="m 142.571,172.431 c -10.359,1.012 -20.428,3.054 -30.886,3.376 -1.132,0.035 -1.14,1.785 0,1.765 10.159,-0.183 21.327,-0.561 31.091,-3.621 0.791,-0.248 0.702,-1.609 -0.205,-1.52 z"
           id="path3378"
           inkscape:connector-curvature="0" />
        <path
           style="fill:#1d1d1b"
           d="m 151.021,162.997 c -11.158,0.51 -22.339,1.955 -33.456,3.032 -0.826,0.08 -0.847,1.371 0,1.309 11.129,-0.82 22.381,-1.293 33.456,-2.676 1.031,-0.128 1.097,-1.715 0,-1.665 z"
           id="path3380"
           inkscape:connector-curvature="0" />
        <path
           style="fill:#1d1d1b"
           d="m 157.466,148.793 c -10.613,2.717 -21.017,4.512 -32.012,4.023 -1.116,-0.049 -1.099,1.652 0,1.726 10.985,0.741 22.108,-0.195 32.45,-4.161 0.971,-0.372 0.609,-1.855 -0.438,-1.588 z"
           id="path3382"
           inkscape:connector-curvature="0" />
        <path
           style="fill:#1d1d1b"
           d="m 163.495,140.086 c -10.972,0.637 -21.79,2.028 -32.807,2.119 -1.338,0.011 -1.343,2.079 0,2.082 10.95,0.022 22.3,-0.137 33.045,-2.449 0.975,-0.209 0.77,-1.811 -0.238,-1.752 z"
           id="path3384"
           inkscape:connector-curvature="0" />
        <path
           style="fill:#1d1d1b"
           d="m 165.41,125.399 c -9.911,0.74 -19.474,2.741 -29.486,2.712 -1.469,-0.005 -1.469,2.26 0,2.281 9.642,0.134 20.546,-0.016 29.703,-3.376 0.81,-0.298 0.773,-1.692 -0.217,-1.617 z"
           id="path3386"
           inkscape:connector-curvature="0" />
        <path
           style="fill:#1d1d1b"
           d="m 168.684,114.788 c -10.272,0.337 -20.494,1.798 -30.787,2.143 -1.105,0.037 -1.113,1.737 0,1.726 10.251,-0.111 20.941,-0.104 31.025,-2.116 0.987,-0.198 0.76,-1.786 -0.238,-1.753 z"
           id="path3388"
           inkscape:connector-curvature="0" />
        <path
           style="fill:#1d1d1b"
           d="m 166.866,102.598 c -9.458,0.632 -18.821,3.046 -28.323,3.811 -0.866,0.07 -0.89,1.404 0,1.368 9.2,-0.366 19.776,-0.649 28.513,-3.777 0.709,-0.253 0.665,-1.458 -0.19,-1.402 z"
           id="path3390"
           inkscape:connector-curvature="0" />
        <path
           style="fill:#1d1d1b"
           d="m 170.012,93.103 c -9.876,0.294 -20.061,2.074 -29.81,3.653 -1.151,0.187 -0.892,2.138 0.277,2.045 9.851,-0.78 20.152,-1.477 29.825,-3.537 1.216,-0.258 0.943,-2.197 -0.292,-2.161 z"
           id="path3392"
           inkscape:connector-curvature="0" />
        <path
           style="fill:#1d1d1b"
           d="m 165.414,85.759 c -8.056,0.074 -16.19,0.754 -24.237,1.203 -1.254,0.07 -1.27,1.93 0,1.963 8.105,0.21 16.495,0.134 24.535,-0.966 1.266,-0.173 0.938,-2.212 -0.298,-2.2 z"
           id="path3394"
           inkscape:connector-curvature="0" />
      </g>
      <g
         id="g3396" />
      <g
         id="g3398" />
      <g
         id="g3400" />
      <g
         id="g3402" />
      <g
         id="g3404" />
      <g
         id="g3406" />
      <g
         id="g3408" />
      <g
         id="g3410" />
      <g
         id="g3412" />
      <g
         id="g3414" />
      <g
         id="g3416" />
      <g
         id="g3418" />
      <g
         id="g3420" />
      <g
         id="g3422" />
      <g
         id="g3424" />
    </g>
    <text
       id="text3466"
       y="112.33561"
       x="42.878193"
       style="font-style:normal;font-weight:normal;font-size:11.28888893px;line-height:125%;font-family:sans-serif;letter-spacing:0px;word-spacing:0px;fill:#000000;fill-opacity:1;stroke:none;stroke-width:1px;stroke-linecap:butt;stroke-linejoin:miter;stroke-opacity:1"
       xml:space="preserve"
       sodipodi:linespacing="125%"><tspan
         style="font-style:normal;font-variant:normal;font-weight:500;font-stretch:normal;font-size:45.15555573px;font-family:'Mon Amour Two';-inkscape-font-specification:'Mon Amour Two Medium'"
         y="112.33561"
         x="42.878193"
         id="tspan3468">К</tspan></text>
    <text
       id="text3470"
       y="109.73544"
       x="161.35522"
       style="font-style:normal;font-weight:normal;font-size:11.28888893px;line-height:125%;font-family:sans-serif;letter-spacing:0px;word-spacing:0px;fill:#000000;fill-opacity:1;stroke:none;stroke-width:1px;stroke-linecap:butt;stroke-linejoin:miter;stroke-opacity:1"
       xml:space="preserve"
       sodipodi:linespacing="125%"><tspan
         style="font-style:normal;font-variant:normal;font-weight:500;font-stretch:normal;font-size:43.7444458px;font-family:'Mon Amour Two';-inkscape-font-specification:'Mon Amour Two Medium'"
         y="109.73544"
         x="161.35522"
         id="tspan3472">феёк</tspan></text>
  </g>
</svg>
