<?xml version="1.0" encoding="iso-8859-1"?>
<!-- Generator: Adobe Illustrator 18.0.0, SVG Export Plug-In . SVG Version: 6.00 Build 0)  -->
<!DOCTYPE svg PUBLIC "-//W3C//DTD SVG 1.1//EN" "http://www.w3.org/Graphics/SVG/1.1/DTD/svg11.dtd">
<svg version="1.1" id="Capa_1" xmlns="http://www.w3.org/2000/svg" xmlns:xlink="http://www.w3.org/1999/xlink" x="0px" y="0px"
	 viewBox="0 0 219.436 219.436" style="enable-background:new 0 0 219.436 219.436;" xml:space="preserve">
<g>
	<path style="fill:#1D1D1B;" d="M201.946,105.82c-7.952-10.182-18.279-10.342-29.758-10.092c-0.144-9.964-2.054-18.383-8.029-18.72
		c-0.404-0.023-0.744,0.107-1.034,0.304c-0.096-0.717-0.611-1.37-1.613-1.434c-44.938-2.862-93.74-1.365-138.57,3.039
		c-1.458,0.143-1.826,1.751-1.05,2.557c-0.558,0.218-1.043,0.656-1.28,1.403c-6.595,20.754,1.635,48.375,9.834,67.578
		c6.937,16.244,17.214,29.855,31.694,39.131c-16.274-0.602-32.547-1.061-48.615,0.257c-0.658,0.054-0.925,1.121-0.168,1.246
		c56.333,9.288,118.51,4.04,174.984-2.673c-2.182,12.828-37.987,21.167-46.902,22.903c-13.759,2.679-27.936,3.387-41.921,3.497
		c-30.657,0.241-61.326-3.785-86.074-23.364c-1.405-1.112-3.414,0.763-2.019,2.019c29.051,26.152,70.57,27.649,107.715,25.068
		c12.124-0.842,81.685-10.801,72.778-32.738c-0.415-1.023-1.741-1.428-2.643-1.088c-18.267,1.405-36.464,3.135-54.709,4.34
		c11.384-5.473,19.489-17.485,25.124-30.552c17.694,12.373,40.294-0.907,46.7-20.001
		C210.032,127.647,209.143,115.036,201.946,105.82z M168.906,127.697c0.405-2.114,1.211-6.667,1.926-12.197
		c7.617,0.083,16.796,1.426,18.902,10.275c1.226,5.154-1.707,10.695-6.158,13.322c-5.362,3.164-11.99,1.931-16.97-1.297
		C167.514,134.266,168.308,130.83,168.906,127.697z M129.45,188.772c-0.231,0.158-0.365,0.379-0.432,0.614
		c-8.951,0.535-17.914,0.94-26.907,1.079c-11.038,0.171-22.154-0.212-33.284-0.632c-30.6-21.601-53.064-68.412-43.894-105.765
		c0.219-0.892-0.075-1.586-0.57-2.069c44.565,2.488,92.823,1.943,137.149-2.692c0.275-0.028,0.514-0.104,0.721-0.212
		c0.016,0.623,0.305,1.226,0.94,1.55c3.304,1.687,4.456,7.694,4.477,15.188c-1.105,0.05-1.435,1.817-0.252,2.034
		c0.082,0.015,0.167,0.022,0.249,0.036c-0.342,14.452-4.398,33.314-5.938,38.731C156.201,156.009,146.526,177.158,129.45,188.772z
		 M202.932,133.251c-4.56,19.539-23.508,30.68-41.698,21.477c1.869-4.782,3.422-9.628,4.704-14.29
		c10.461,7.792,27.082,3.878,28.521-10.775c1.147-11.682-12.06-20.783-23.072-18.942c0.414-3.962,0.735-8.169,0.798-12.244
		c6.577,0.595,13.431,0.536,19.121,3.874C201.772,108.491,205.578,121.908,202.932,133.251z"/>
	<path style="fill:#1D1D1B;" d="M83.754,34.579c1.317-1.741,2.248-3.633,2.147-5.869C85.693,24.135,69.772,9.993,70.278,9.282
		c1.109-1.558-0.717-3.148-2.228-2.898c-0.311,0.052-0.623,0.103-0.934,0.154c-1.041,0.172-1.681,1.311-1.727,2.268
		c-0.236,4.884,5.088,8.147,8.181,11.263c4.183,4.212,7.999,8.3,3.362,14.059c-1.403,1.743-3.373,2.75-4.629,4.705
		c-5.141,8.004-0.332,17.107,8.457,19.003c1.882,0.406,2.549-2.182,0.786-2.849c-8.739-3.308-5.576-12.225-1.151-17.397
		C81.36,36.462,82.834,35.795,83.754,34.579z"/>
	<path style="fill:#1D1D1B;" d="M99.61,2.055c-1.324-1.492-3.295,0.15-3.033,1.765c0.598,3.685,2.236,5.034,5.061,7.495
		c5.022,4.375,11.079,6.034,6.412,16.194c-1.869,4.069-4.57,4.574-7.121,7.597c-5.188,6.146,0.367,14.665,4.661,19.644
		c1.119,1.298,3.275-0.388,2.367-1.826c-3.392-5.372-5.262-10.257-1.585-16.201c0.935-1.512,3.2-2.847,4.338-4.407
		c2.308-3.162,4.142-7.286,3.911-11.302C114.117,12.208,104.818,7.923,99.61,2.055z"/>
	<path style="fill:#1D1D1B;" d="M141.872,17.906c-0.939-8.305-7.378-14.74-14.786-17.779c-1.894-0.777-3.61,2.212-2.026,3.48
		c1.652,1.322,6.018,4.535,7.052,5.581c3.619,3.663,5.464,11.304,3.632,16.182c-1.431,3.811-5.346,5.977-6.487,10.18
		c-1.624,5.983,0.51,11.799,5.239,15.592c0.973,0.78,2.83-0.278,1.916-1.478c-5.782-7.581-2.855-12.778,1.841-19.746
		C140.824,26.105,142.407,22.634,141.872,17.906z"/>
	<path style="fill:#1D1D1B;" d="M166.077,203.611c-19.036,0.664-38.252,3.107-57.098,5.805c-0.583,0.083-0.451,1.09,0.138,1.033
		c18.962-1.863,38.049-3.223,56.96-5.49C166.914,204.859,166.968,203.58,166.077,203.611z"/>
	<path style="fill:#1D1D1B;" d="M185.031,193.903c-22.281,2.794-44.321,5.922-66.769,7.119c-0.734,0.039-0.744,1.174,0,1.151
		c22.343-0.727,45.037-2.168,67.002-6.536C186.225,195.445,186.022,193.778,185.031,193.903z"/>
	<path style="fill:#1D1D1B;" d="M137.967,181.822c-6.699,0.591-13.358,1.874-19.999,2.911c-3.747,0.585-12.425,0.286-15.124,3.037
		c-0.052,0.051-0.037,0.131,0.02,0.169c0.089,0.058,0.178,0.116,0.269,0.173c0.039,0.027,0.091,0.006,0.116-0.03
		c0.043-0.064,0.087-0.129,0.13-0.192c0.044-0.065-0.056-0.143-0.11-0.084c1.107-1.234,9.082-1.109,10.894-1.344
		c2.646-0.342,5.29-0.692,7.934-1.041c5.354-0.707,10.749-1.255,16.043-2.314C138.855,182.965,138.707,181.756,137.967,181.822z"/>
	<path style="fill:#1D1D1B;" d="M142.571,172.431c-10.359,1.012-20.428,3.054-30.886,3.376c-1.132,0.035-1.14,1.785,0,1.765
		c10.159-0.183,21.327-0.561,31.091-3.621C143.567,173.703,143.478,172.342,142.571,172.431z"/>
	<path style="fill:#1D1D1B;" d="M151.021,162.997c-11.158,0.51-22.339,1.955-33.456,3.032c-0.826,0.08-0.847,1.371,0,1.309
		c11.129-0.82,22.381-1.293,33.456-2.676C152.052,164.534,152.118,162.947,151.021,162.997z"/>
	<path style="fill:#1D1D1B;" d="M157.466,148.793c-10.613,2.717-21.017,4.512-32.012,4.023c-1.116-0.049-1.099,1.652,0,1.726
		c10.985,0.741,22.108-0.195,32.45-4.161C158.875,150.009,158.513,148.526,157.466,148.793z"/>
	<path style="fill:#1D1D1B;" d="M163.495,140.086c-10.972,0.637-21.79,2.028-32.807,2.119c-1.338,0.011-1.343,2.079,0,2.082
		c10.95,0.022,22.3-0.137,33.045-2.449C164.708,141.629,164.503,140.027,163.495,140.086z"/>
	<path style="fill:#1D1D1B;" d="M165.41,125.399c-9.911,0.74-19.474,2.741-29.486,2.712c-1.469-0.005-1.469,2.26,0,2.281
		c9.642,0.134,20.546-0.016,29.703-3.376C166.437,126.718,166.4,125.324,165.41,125.399z"/>
	<path style="fill:#1D1D1B;" d="M168.684,114.788c-10.272,0.337-20.494,1.798-30.787,2.143c-1.105,0.037-1.113,1.737,0,1.726
		c10.251-0.111,20.941-0.104,31.025-2.116C169.909,116.343,169.682,114.755,168.684,114.788z"/>
	<path style="fill:#1D1D1B;" d="M166.866,102.598c-9.458,0.632-18.821,3.046-28.323,3.811c-0.866,0.07-0.89,1.404,0,1.368
		c9.2-0.366,19.776-0.649,28.513-3.777C167.765,103.747,167.721,102.542,166.866,102.598z"/>
	<path style="fill:#1D1D1B;" d="M170.012,93.103c-9.876,0.294-20.061,2.074-29.81,3.653c-1.151,0.187-0.892,2.138,0.277,2.045
		c9.851-0.78,20.152-1.477,29.825-3.537C171.52,95.006,171.247,93.067,170.012,93.103z"/>
	<path style="fill:#1D1D1B;" d="M165.414,85.759c-8.056,0.074-16.19,0.754-24.237,1.203c-1.254,0.07-1.27,1.93,0,1.963
		c8.105,0.21,16.495,0.134,24.535-0.966C166.978,87.786,166.65,85.747,165.414,85.759z"/>
</g>
<g>
</g>
<g>
</g>
<g>
</g>
<g>
</g>
<g>
</g>
<g>
</g>
<g>
</g>
<g>
</g>
<g>
</g>
<g>
</g>
<g>
</g>
<g>
</g>
<g>
</g>
<g>
</g>
<g>
</g>
</svg>
